<svg xmlns="http://www.w3.org/2000/svg" xmlns:xlink="http://www.w3.org/1999/xlink" viewBox="0 0 263 76" xmlns:v="https://vecta.io/nano"><path d="M61.15-356.78l-15.13-22.7a7.56 7.56 0 0 0-6.36-3.46H-174.1a7.57 7.57 0 0 0-6.86 4.37l-15.96 34.22c-1.1 2.34-.9 5.08.48 7.26l15.13 22.7c1.4 2.18 3.8 3.5 6.38 3.5H39.33a7.58 7.58 0 0 0 6.9-4.45l15.47-34.22a7.6 7.6 0 0 0-.55-7.22zM31.1-338.04l4.98-11.02L46-352.1l-10.8 23.87a3.81 3.81 0 0 1-3.45 2.23h-202.4l6.96-7.57H24.2c2.97-.01 5.67-1.75 6.9-4.46h0zm27.15-13.08L42.78-316.9a3.81 3.81 0 0 1-3.45 2.23h-214.27a3.78 3.78 0 0 1-3.19-1.75c-.2-.3-.34-.62-.44-.96l4.46-4.85H31.76a7.58 7.58 0 0 0 6.9-4.45l12.16-26.9 6.4-1.97c1.3 1.07 1.72 2.9 1.02 4.44h0z" fill="#15233f"/><path d="M-177.67-315.84a3.95 3.95 0 0 0 2.85 1.17H39.33c1.5 0 2.83-.87 3.45-2.23l15.47-34.23c.64-1.4.35-3.07-.73-4.2a3.93 3.93 0 0 0-2.86-1.15h0a3.96 3.96 0 0 0-3.6 2.32l-12.4 27.45a7.56 7.56 0 0 1-6.9 4.45h-206.7c-1.47 0-2.8.85-3.43 2.2h0a3.81 3.81 0 0 0 .71 4.22z" fill="#f70f1c"/><path d="M50.16-366.42a3.91 3.91 0 0 0-3.09-1.39 4.1 4.1 0 0 0-3.64 2.47l-12.34 27.3a7.56 7.56 0 0 1-6.9 4.45h-206.7c-1.47 0-2.8.85-3.43 2.18h0c-.6 1.3-.43 2.83.46 3.95a3.93 3.93 0 0 0 3.12 1.43h214.1c1.5 0 2.87-.88 3.5-2.25l15.45-34.2a3.78 3.78 0 0 0-.52-3.95z" fill="#42c3fa"/><g fill="#eaeaea"><path d="M23.717-350.538l-2.23 4.7H.897l12-25.3h20.1l-2.23 4.7h-13.98l-2.6 5.5h12.35l-2.16 4.55h-12.35l-2.78 5.85h14.48zm-13.03-20.6l-23.5 25.3h-6.08l.52-25.3h6.65l-.47 18.06 16.77-18.06h6.1zm-62.74 24.02a6.67 6.67 0 0 1-2.99-4.68 11.55 11.55 0 0 1 1.3-6.7 21.3 21.3 0 0 1 5.06-6.7 25.32 25.32 0 0 1 7.42-4.68c2.62-1.1 5.43-1.68 8.27-1.7 2.33-.1 4.65.48 6.64 1.7 1.62 1.06 2.7 2.76 3 4.68a11.4 11.4 0 0 1-1.28 6.7c-1.23 2.55-2.95 4.83-5.08 6.7-2.2 1.97-4.7 3.56-7.42 4.68-2.6 1.1-5.42 1.68-8.25 1.7a11.73 11.73 0 0 1-6.66-1.7zm13.77-4.32a15.04 15.04 0 0 0 4.34-2.87 13.79 13.79 0 0 0 3.07-4.19c.68-1.3 1-2.74.9-4.2a3.99 3.99 0 0 0-1.62-2.87c-1.1-.74-2.43-1.1-3.77-1.03a11.75 11.75 0 0 0-4.74 1.03 15.04 15.04 0 0 0-4.34 2.87 13.79 13.79 0 0 0-3.07 4.19c-.68 1.3-1 2.74-.9 4.2a3.99 3.99 0 0 0 1.62 2.87c1.1.74 2.43 1.1 3.77 1.03a11.75 11.75 0 0 0 4.74-1.03h0zm-30.76 5.58l-1.8-7.04h-5.66l-3.34 7.04h-6.16l12-25.3h11.5c1.93-.1 3.85.3 5.6 1.12a4.61 4.61 0 0 1 2.5 3.18 7.81 7.81 0 0 1-.9 4.88c-.88 1.87-2.15 3.52-3.73 4.86a16.82 16.82 0 0 1-5.53 3.12l2.1 8.13h-6.6zm7.63-19.38c-.6-.76-1.83-1.14-3.68-1.14h-5.02l-4.18 8.8h5.02c1.66.05 3.3-.35 4.77-1.16a7.27 7.27 0 0 0 2.98-3.25c.68-1.4.7-2.5.1-3.26h0z"/><use xlink:href="#B"/><use xlink:href="#C"/><path d="M-147.123-371.128h6.15l-12 25.3h-6.15l12-25.3zm-20.35 4.7l-3.17 6.68h12.3l-2.23 4.7h-12.3l-4.37 9.2h-6.15l12-25.3h20.1l-2.23 4.7h-13.94z"/></g><path d="M260.48 27.98l-15.13-22.7a7.56 7.56 0 0 0-6.36-3.46H25.22a7.57 7.57 0 0 0-6.86 4.37L2.4 40.4c-1.1 2.34-.9 5.08.48 7.26L18 70.37c1.4 2.18 3.8 3.5 6.38 3.5h214.27a7.58 7.58 0 0 0 6.9-4.45l15.47-34.22c1.05-2.34.84-5.06-.55-7.22zm-30.06 18.75l4.98-11.02 9.93-3.05-10.8 23.87a3.81 3.81 0 0 1-3.45 2.23H28.7l6.96-7.57h187.87c2.97-.01 5.67-1.75 6.9-4.46h0zm27.15-13.08L242.1 67.87a3.81 3.81 0 0 1-3.45 2.23H24.4a3.78 3.78 0 0 1-3.19-1.75c-.2-.3-.34-.62-.44-.96l4.46-4.85H231.1a7.58 7.58 0 0 0 6.9-4.45l12.16-26.9 6.4-1.97c1.3 1.07 1.72 2.9 1.02 4.44h0z" fill="#15233f"/><path d="M21.66 68.93a3.95 3.95 0 0 0 2.85 1.17h214.16c1.5 0 2.83-.87 3.45-2.23l15.47-34.23c.64-1.4.35-3.07-.73-4.2A3.93 3.93 0 0 0 254 28.3h0a3.96 3.96 0 0 0-3.6 2.32L238 58.07a7.56 7.56 0 0 1-6.9 4.45H24.4c-1.47 0-2.8.85-3.43 2.2h0c-.66 1.4-.38 3.1.7 4.22z" fill="#f70f1c"/><path d="M249.5 18.34a3.91 3.91 0 0 0-3.09-1.39 4.1 4.1 0 0 0-3.64 2.47l-12.34 27.3a7.56 7.56 0 0 1-6.9 4.45H16.83c-1.47 0-2.8.85-3.43 2.18h0c-.6 1.3-.43 2.83.46 3.95a3.93 3.93 0 0 0 3.12 1.43h214.08c1.5 0 2.87-.88 3.5-2.25L250 22.3c.6-1.3.4-2.84-.5-3.95z" fill="#42c3fa"/><g fill="#eaeaea"><path d="M223.047 34.232l-2.23 4.7h-20.6l12-25.3h20.1l-2.23 4.7h-13.98l-2.6 5.5h12.35l-2.16 4.55h-12.35l-2.78 5.85h14.48zm-13.04-20.6l-23.5 25.3h-6.08l.52-25.3h6.65l-.47 18.06 16.77-18.06h6.1zm-62.73 24.02a6.67 6.67 0 0 1-2.99-4.68 11.55 11.55 0 0 1 1.3-6.7 21.3 21.3 0 0 1 5.06-6.7 25.32 25.32 0 0 1 7.42-4.68c2.62-1.1 5.43-1.68 8.27-1.7 2.33-.1 4.65.48 6.64 1.7 1.62 1.06 2.7 2.76 3 4.68a11.4 11.4 0 0 1-1.28 6.7c-1.23 2.55-2.95 4.83-5.08 6.7-2.2 1.97-4.7 3.56-7.42 4.68-2.6 1.1-5.42 1.68-8.25 1.7a11.73 11.73 0 0 1-6.66-1.7zm13.77-4.32a15.04 15.04 0 0 0 4.34-2.87 13.79 13.79 0 0 0 3.07-4.19c.68-1.3 1-2.74.9-4.2a3.99 3.99 0 0 0-1.62-2.87c-1.1-.74-2.43-1.1-3.77-1.03a11.75 11.75 0 0 0-4.74 1.03 15.04 15.04 0 0 0-4.34 2.87 13.79 13.79 0 0 0-3.07 4.19c-.68 1.3-1 2.74-.9 4.2a3.99 3.99 0 0 0 1.62 2.87c1.1.74 2.43 1.1 3.77 1.03 1.63-.01 3.24-.36 4.74-1.03h0zm-30.76 5.58l-1.8-7.04h-5.66l-3.34 7.04h-6.15l12-25.3h11.5c1.93-.1 3.85.3 5.6 1.12a4.61 4.61 0 0 1 2.5 3.18 7.81 7.81 0 0 1-.9 4.88c-.88 1.87-2.15 3.52-3.73 4.86a16.82 16.82 0 0 1-5.53 3.12l2.1 8.13h-6.6zm7.63-19.38c-.6-.76-1.83-1.14-3.68-1.14h-5.02l-4.18 8.8h5.02c1.66.05 3.3-.35 4.77-1.16a7.27 7.27 0 0 0 2.98-3.25c.68-1.4.7-2.5.1-3.26h0z"/><use xlink:href="#B" x="199.33" y="384.77"/><use xlink:href="#C" x="199.33" y="384.77"/><path d="M52.207 13.642h6.15l-12 25.28h-6.15l12-25.28zm-20.35 4.7l-3.17 6.68h12.3l-2.23 4.7h-12.3l-4.37 9.2h-6.15l12-25.28h20.1l-2.23 4.7-13.94-.01z"/></g><defs ><path id="B" d="M-91.123-358.888h5.62l-4.86 10.26a27.02 27.02 0 0 1-6.15 2.38c-2 .53-4.06.8-6.13.83a11.78 11.78 0 0 1-6.65-1.68 6.65 6.65 0 0 1-2.98-4.66c-.25-2.33.2-4.68 1.3-6.74 1.23-2.56 2.95-4.85 5.07-6.74a24.9 24.9 0 0 1 7.43-4.66c2.64-1.1 5.46-1.67 8.32-1.68a13.33 13.33 0 0 1 5.81 1.12 6.38 6.38 0 0 1 3.24 3.25l-5.6 3.47c-1-1.9-2.84-2.85-5.52-2.85-1.72 0-3.42.35-5 1-1.64.67-3.14 1.64-4.43 2.85-1.3 1.2-2.35 2.63-3.1 4.23a7.72 7.72 0 0 0-.89 4.19c.1 1.16.74 2.2 1.7 2.87a6.89 6.89 0 0 0 3.98 1.03c1.82-.01 3.62-.38 5.3-1.08l3.53-7.4z"/><path id="C" d="M-134.663-371.128h12.08a13.21 13.21 0 0 1 6.91 1.57c1.64.93 2.77 2.56 3.07 4.43a11.23 11.23 0 0 1-1.31 6.65 20.89 20.89 0 0 1-4.99 6.65 23.67 23.67 0 0 1-7.27 4.43c-2.68 1.04-5.53 1.57-8.4 1.57h-12.08l12-25.3zm2.06 20.48c2.6.02 5.16-.72 7.36-2.1a13.32 13.32 0 0 0 5.09-5.73c1.14-2.4 1.26-4.32.34-5.73-.9-1.4-2.7-2.1-5.36-2.1h-5.62l-7.43 15.68h5.62z"/></defs></svg>